<?xml version="1.0" encoding="utf-8"?>
<!-- Generator: Adobe Illustrator 24.2.1, SVG Export Plug-In . SVG Version: 6.00 Build 0)  -->
<svg version="1.1" id="Layer_1" xmlns="http://www.w3.org/2000/svg" xmlns:xlink="http://www.w3.org/1999/xlink" x="0px" y="0px"
	 viewBox="0 0 512 512" style="enable-background:new 0 0 512 512;" xml:space="preserve">
<style type="text/css">
	.st0{opacity:0.1;}
	.st1{fill:#231F20;}
	.st2{opacity:0.2;}
	.st3{opacity:0.4;}
	.st4{clip-path:url(#SVGID_2_);fill:#F1F2F2;}
</style>
<g class="st0">
	<circle class="st1" cx="288.7" cy="177.9" r="2.8"/>
	<circle class="st1" cx="271.8" cy="203.5" r="2.9"/>
	<circle class="st1" cx="246" cy="359" r="3.5"/>
	<circle class="st1" cx="106" cy="201.5" r="3.5"/>
	<circle class="st1" cx="91.8" cy="180.2" r="2.8"/>
	<circle class="st1" cx="165.5" cy="157.5" r="2.2"/>
	<circle class="st1" cx="253" cy="497.1" r="1.8"/>
	<circle class="st1" cx="101.9" cy="178.9" r="1.4"/>
	<circle class="st1" cx="8.5" cy="407" r="3.5"/>
	<circle class="st1" cx="467.7" cy="89" r="2.5"/>
	<circle class="st1" cx="461" cy="75.2" r="1.8"/>
	<circle class="st1" cx="351.8" cy="36.6" r="2"/>
	<circle class="st1" cx="83.2" cy="48.5" r="2.8"/>
	<circle class="st1" cx="67.7" cy="130.4" r="2.2"/>
	<circle class="st1" cx="313.2" cy="108.9" r="3"/>
	<circle class="st1" cx="348" cy="152.4" r="2.8"/>
	<circle class="st1" cx="103.7" cy="353.8" r="1.7"/>
	<circle class="st1" cx="117.7" cy="346.8" r="1.3"/>
	<circle class="st1" cx="181.6" cy="260.3" r="3.8"/>
	<circle class="st1" cx="212.3" cy="483.4" r="3.3"/>
	<circle class="st1" cx="285.2" cy="214.4" r="2"/>
	<circle class="st1" cx="351.6" cy="301.8" r="2.9"/>
	<circle class="st1" cx="306.3" cy="429.9" r="2.8"/>
	<circle class="st1" cx="333.8" cy="440.6" r="3.3"/>
	<circle class="st1" cx="343" cy="428.9" r="2"/>
	<circle class="st1" cx="470.9" cy="437.7" r="2.8"/>
	<circle class="st1" cx="457.3" cy="453.8" r="2.1"/>
</g>
<g class="st2">
	<circle class="st1" cx="494.2" cy="171.5" r="2.9"/>
	<circle class="st1" cx="228" cy="94.5" r="3"/>
	<circle class="st1" cx="175.8" cy="51.5" r="2"/>
	<circle class="st1" cx="6.8" cy="397.2" r="1.8"/>
	<circle class="st1" cx="429.5" cy="234" r="2"/>
	<circle class="st1" cx="434.6" cy="12.6" r="2.1"/>
	<circle class="st1" cx="163.7" cy="311.3" r="3.3"/>
	<circle class="st1" cx="152.5" cy="312.1" r="2.5"/>
	<circle class="st1" cx="233.6" cy="291.6" r="1.8"/>
	<circle class="st1" cx="197.5" cy="477.3" r="2.8"/>
	<circle class="st1" cx="97" cy="269" r="2.5"/>
	<circle class="st1" cx="460" cy="389.6" r="3.5"/>
</g>
<g class="st3">
	<circle class="st1" cx="394.8" cy="334" r="2.8"/>
	<circle class="st1" cx="309.1" cy="28" r="3"/>
	<circle class="st1" cx="324" cy="384" r="2.1"/>
	<circle class="st1" cx="434.1" cy="484.8" r="2"/>
	<circle class="st1" cx="381.8" cy="454.1" r="2"/>
	<circle class="st1" cx="141" cy="145" r="1.5"/>
	<circle class="st1" cx="34.8" cy="320.7" r="3.2"/>
	<circle class="st1" cx="70" cy="63.3" r="1.3"/>
	<circle class="st1" cx="425.3" cy="91.5" r="2.2"/>
	<circle class="st1" cx="357.7" cy="159.8" r="2.4"/>
	<circle class="st1" cx="175.3" cy="284.3" r="1.7"/>
	<circle class="st1" cx="487.3" cy="275.6" r="2"/>
	<circle class="st1" cx="251.2" cy="219.1" r="1.8"/>
	<circle class="st1" cx="228" cy="203.5" r="2.5"/>
	<circle class="st1" cx="139.5" cy="427.1" r="3.1"/>
	<circle class="st1" cx="28" cy="157.9" r="2.1"/>
	<circle class="st1" cx="105.8" cy="496.5" r="2.4"/>
	<circle class="st1" cx="351.9" cy="461.9" r="1.8"/>
</g>
<g class="st0">
	<g>
		<defs>
			<path id="SVGID_1_" d="M529.8,698.8c156,59.8,327.5,99.8,480,76.9c27-4,50.7-8.6,71.5-13.5l0-221.3c0,0-256.3,73.7-551.5,50.7
				L529.8,698.8z"/>
		</defs>
		<clipPath id="SVGID_2_">
			<use xlink:href="#SVGID_1_"  style="overflow:visible;"/>
		</clipPath>
		<polygon class="st4" points="58,320.9 -82.7,563.9 544.5,536.6 		"/>
	</g>
</g>
</svg>
